<svg width="180" height="31" viewBox="0 0 180 31" fill="none" xmlns="http://www.w3.org/2000/svg">
<path d="M37.1038 23.2021V5.7792H43.9678C45.2852 5.7792 46.4078 6.01306 47.3354 6.4808C48.2709 6.94853 48.9842 7.61114 49.4753 8.46865C49.9742 9.31836 50.2237 10.3201 50.2237 11.4738C50.2237 12.6275 49.9742 13.6215 49.4753 14.4556C48.9764 15.2897 48.2514 15.9289 47.3003 16.3733C46.3571 16.8098 45.2151 17.0281 43.8742 17.0281H39.2788V14.0697H43.2779C43.9873 14.0697 44.5719 13.9723 45.0319 13.7774C45.4996 13.5825 45.8465 13.2941 46.0726 12.9121C46.3064 12.5301 46.4234 12.0507 46.4234 11.4738C46.4234 10.8892 46.3064 10.4019 46.0726 10.0122C45.8465 9.61459 45.4996 9.31446 45.0319 9.11178C44.5641 8.9013 43.9756 8.79606 43.2662 8.79606H40.7755V23.2021H37.1038ZM46.7742 23.2021L42.5295 15.2741H46.5052L50.8434 23.2021H46.7742ZM57.7073 23.4594C56.3665 23.4594 55.2089 23.1866 54.2344 22.6409C53.26 22.0952 52.5116 21.3195 51.9893 20.3139C51.4748 19.3005 51.2176 18.1039 51.2176 16.7241C51.2176 15.3833 51.4748 14.2061 51.9893 13.1927C52.5116 12.1793 53.2444 11.3881 54.1877 10.819C55.1387 10.2499 56.2535 9.96538 57.5319 9.96538C58.3972 9.96538 59.2041 10.1057 59.9524 10.3863C60.7008 10.6592 61.3556 11.0723 61.9169 11.6258C62.4782 12.1715 62.9147 12.8614 63.2266 13.6955C63.5384 14.5219 63.6943 15.4924 63.6943 16.6072V17.5894H52.6559V15.356H61.9403L60.2565 15.9406C60.2565 15.278 60.1551 14.7012 59.9524 14.21C59.7498 13.7189 59.4457 13.3408 59.0404 13.0758C58.6428 12.8029 58.1478 12.6665 57.5553 12.6665C56.9629 12.6665 56.4601 12.8029 56.0469 13.0758C55.6415 13.3486 55.3297 13.7189 55.1114 14.1866C54.8932 14.6544 54.784 15.1923 54.784 15.8003V17.3789C54.784 18.0883 54.9088 18.6963 55.1582 19.2031C55.4077 19.702 55.7546 20.0878 56.1989 20.3607C56.6511 20.6257 57.1695 20.7583 57.7541 20.7583C58.1595 20.7583 58.5259 20.6998 58.8533 20.5829C59.1807 20.4659 59.4613 20.2944 59.6952 20.0684C59.9369 19.8423 60.1162 19.5694 60.2331 19.2498L63.5774 19.472C63.4137 20.2749 63.0706 20.9765 62.5484 21.5768C62.0338 22.1692 61.3673 22.6331 60.5488 22.9683C59.7303 23.2957 58.7831 23.4594 57.7073 23.4594ZM71.2014 23.4594C69.8605 23.4594 68.7029 23.1866 67.7285 22.6409C66.754 22.0952 66.0057 21.3195 65.4834 20.3139C64.9689 19.3005 64.7116 18.1039 64.7116 16.7241C64.7116 15.3833 64.9689 14.2061 65.4834 13.1927C66.0057 12.1793 66.7384 11.3881 67.6817 10.819C68.6327 10.2499 69.7475 9.96538 71.026 9.96538C71.8913 9.96538 72.6981 10.1057 73.4465 10.3863C74.1948 10.6592 74.8497 11.0723 75.4109 11.6258C75.9722 12.1715 76.4088 12.8614 76.7206 13.6955C77.0324 14.5219 77.1883 15.4924 77.1883 16.6072V17.5894H66.1499V15.356H75.4343L73.7505 15.9406C73.7505 15.278 73.6491 14.7012 73.4465 14.21C73.2438 13.7189 72.9398 13.3408 72.5344 13.0758C72.1368 12.8029 71.6418 12.6665 71.0493 12.6665C70.4569 12.6665 69.9541 12.8029 69.5409 13.0758C69.1355 13.3486 68.8237 13.7189 68.6055 14.1866C68.3872 14.6544 68.278 15.1923 68.278 15.8003V17.3789C68.278 18.0883 68.4028 18.6963 68.6522 19.2031C68.9017 19.702 69.2486 20.0878 69.6929 20.3607C70.1451 20.6257 70.6635 20.7583 71.2481 20.7583C71.6535 20.7583 72.0199 20.6998 72.3473 20.5829C72.6747 20.4659 72.9553 20.2944 73.1892 20.0684C73.4309 19.8423 73.6102 19.5694 73.7271 19.2498L77.0714 19.472C76.9077 20.2749 76.5647 20.9765 76.0424 21.5768C75.5279 22.1692 74.8613 22.6331 74.0428 22.9683C73.2243 23.2957 72.2771 23.4594 71.2014 23.4594ZM82.3567 5.7792V23.2021H78.7435V5.7792H82.3567ZM89.3259 23.2021V5.7792H96.1898C97.5073 5.7792 98.6298 6.01306 99.5575 6.4808C100.493 6.94853 101.206 7.61114 101.697 8.46865C102.196 9.31836 102.446 10.3201 102.446 11.4738C102.446 12.6275 102.196 13.6215 101.697 14.4556C101.198 15.2897 100.473 15.9289 99.5224 16.3733C98.5792 16.8098 97.4371 17.0281 96.0963 17.0281H91.5008V14.0697H95.4999C96.2093 14.0697 96.794 13.9723 97.2539 13.7774C97.7217 13.5825 98.0686 13.2941 98.2946 12.9121C98.5285 12.5301 98.6454 12.0507 98.6454 11.4738C98.6454 10.8892 98.5285 10.4019 98.2946 10.0122C98.0686 9.61459 97.7217 9.31446 97.2539 9.11178C96.7862 8.9013 96.1976 8.79606 95.4882 8.79606H92.9976V23.2021H89.3259ZM98.9962 23.2021L94.7516 15.2741H98.7273L103.065 23.2021H98.9962ZM109.929 23.4594C108.589 23.4594 107.431 23.1866 106.457 22.6409C105.482 22.0952 104.734 21.3195 104.211 20.3139C103.697 19.3005 103.44 18.1039 103.44 16.7241C103.44 15.3833 103.697 14.2061 104.211 13.1927C104.734 12.1793 105.466 11.3881 106.41 10.819C107.361 10.2499 108.476 9.96538 109.754 9.96538C110.619 9.96538 111.426 10.1057 112.175 10.3863C112.923 10.6592 113.578 11.0723 114.139 11.6258C114.7 12.1715 115.137 12.8614 115.449 13.6955C115.76 14.5219 115.916 15.4924 115.916 16.6072V17.5894H104.878V15.356H114.162L112.479 15.9406C112.479 15.278 112.377 14.7012 112.175 14.21C111.972 13.7189 111.668 13.3408 111.262 13.0758C110.865 12.8029 110.37 12.6665 109.777 12.6665C109.185 12.6665 108.682 12.8029 108.269 13.0758C107.864 13.3486 107.552 13.7189 107.334 14.1866C107.115 14.6544 107.006 15.1923 107.006 15.8003V17.3789C107.006 18.0883 107.131 18.6963 107.38 19.2031C107.63 19.702 107.977 20.0878 108.421 20.3607C108.873 20.6257 109.392 20.7583 109.976 20.7583C110.382 20.7583 110.748 20.6998 111.075 20.5829C111.403 20.4659 111.683 20.2944 111.917 20.0684C112.159 19.8423 112.338 19.5694 112.455 19.2498L115.799 19.472C115.636 20.2749 115.293 20.9765 114.77 21.5768C114.256 22.1692 113.589 22.6331 112.771 22.9683C111.952 23.2957 111.005 23.4594 109.929 23.4594ZM123.353 23.4594C122.02 23.4594 120.874 23.1749 119.915 22.6058C118.957 22.0289 118.22 21.2377 117.705 20.2321C117.191 19.2186 116.934 18.0493 116.934 16.7241C116.934 15.3833 117.191 14.2061 117.705 13.1927C118.228 12.1793 118.968 11.3881 119.927 10.819C120.886 10.2499 122.028 9.96538 123.353 9.96538C124.491 9.96538 125.485 10.172 126.335 10.5851C127.193 10.9983 127.871 11.5791 128.37 12.3274C128.869 13.0758 129.141 13.9567 129.188 14.9701H125.774C125.711 14.5335 125.579 14.1516 125.376 13.8242C125.174 13.4967 124.905 13.2434 124.569 13.0641C124.234 12.8848 123.844 12.7952 123.4 12.7952C122.839 12.7952 122.348 12.9472 121.927 13.2512C121.514 13.5474 121.19 13.9879 120.956 14.5725C120.73 15.1494 120.617 15.851 120.617 16.6773C120.617 17.5036 120.73 18.213 120.956 18.8055C121.19 19.3979 121.514 19.8501 121.927 20.1619C122.348 20.4737 122.839 20.6296 123.4 20.6296C124.024 20.6296 124.55 20.4347 124.979 20.045C125.407 19.6474 125.672 19.1017 125.774 18.4079H129.188C129.134 19.4057 128.865 20.2866 128.381 21.0506C127.898 21.8068 127.232 22.3992 126.382 22.828C125.532 23.2489 124.523 23.4594 123.353 23.4594ZM130.755 23.2021V10.1291H134.251V12.421H134.392C134.633 11.6102 135.035 10.9983 135.596 10.5851C136.157 10.1642 136.801 9.95369 137.525 9.95369C137.713 9.95369 137.907 9.96538 138.11 9.98877C138.321 10.0044 138.508 10.0355 138.671 10.0823V13.2863C138.5 13.2317 138.262 13.1888 137.958 13.1576C137.662 13.1187 137.385 13.0992 137.128 13.0992C136.606 13.0992 136.134 13.2161 135.713 13.45C135.292 13.676 134.961 13.9957 134.719 14.4088C134.485 14.8142 134.368 15.2819 134.368 15.812V23.2021H130.755ZM148.131 17.6479V10.1291H151.744V23.2021H148.272V20.8284H148.131C147.835 21.5846 147.348 22.2004 146.67 22.676C145.991 23.1437 145.161 23.3736 144.179 23.3659C143.306 23.3659 142.534 23.171 141.864 22.7812C141.201 22.3836 140.683 21.8184 140.308 21.0857C139.942 20.3529 139.759 19.4759 139.759 18.4547V10.1291H143.372V17.8233C143.372 18.5872 143.579 19.1953 143.992 19.6474C144.405 20.0917 144.955 20.31 145.641 20.3022C146.077 20.3022 146.483 20.2048 146.857 20.0099C147.231 19.8072 147.535 19.5071 147.769 19.1095C148.01 18.7119 148.131 18.2247 148.131 17.6479ZM153.884 23.2021V10.1291H157.498V23.2021H153.884ZM155.685 8.45696C155.147 8.45696 154.687 8.27766 154.305 7.91907C153.923 7.56047 153.732 7.12782 153.732 6.62111C153.732 6.11441 153.923 5.68565 154.305 5.33486C154.687 4.97626 155.147 4.79697 155.685 4.79697C156.231 4.79697 156.695 4.97626 157.077 5.33486C157.459 5.68565 157.65 6.11441 157.65 6.62111C157.65 7.12782 157.459 7.56047 157.077 7.91907C156.695 8.27766 156.231 8.45696 155.685 8.45696ZM166.572 10.1291V12.8653H158.702V10.1291H166.572ZM160.491 7.01868H164.104V19.1797C164.104 19.6162 164.202 19.9397 164.397 20.1502C164.591 20.3529 164.903 20.4542 165.332 20.4542C165.472 20.4542 165.628 20.4425 165.8 20.4192C165.971 20.3958 166.119 20.3685 166.244 20.3373L166.817 23.0501C166.42 23.1671 166.034 23.2528 165.659 23.3074C165.293 23.362 164.931 23.3892 164.572 23.3892C163.27 23.3892 162.265 23.0657 161.555 22.4187C160.846 21.7639 160.491 20.844 160.491 19.6591V7.01868ZM178.838 13.8592L175.529 14.058C175.443 13.6449 175.213 13.2902 174.839 12.9939C174.464 12.6899 173.962 12.5379 173.33 12.5379C172.769 12.5379 172.297 12.6548 171.915 12.8887C171.541 13.1226 171.354 13.4344 171.354 13.8242C171.354 14.136 171.475 14.4049 171.717 14.631C171.966 14.8493 172.391 15.0208 172.991 15.1455L175.365 15.6132C176.636 15.8705 177.583 16.2875 178.206 16.8644C178.83 17.4413 179.142 18.2013 179.142 19.1446C179.142 20.0099 178.892 20.7661 178.393 21.4131C177.895 22.0523 177.208 22.5551 176.335 22.9215C175.462 23.2801 174.461 23.4594 173.33 23.4594C171.6 23.4594 170.22 23.0969 169.191 22.3719C168.17 21.6469 167.573 20.6647 167.402 19.4252L170.945 19.2381C171.062 19.7682 171.327 20.1697 171.74 20.4425C172.153 20.7154 172.683 20.8518 173.33 20.8518C173.962 20.8518 174.472 20.7271 174.862 20.4776C175.26 20.2282 175.458 19.9124 175.458 19.5305C175.458 18.8834 174.897 18.4469 173.775 18.2208L171.518 17.7531C170.247 17.4958 169.3 17.0554 168.676 16.4318C168.053 15.8081 167.741 15.0091 167.741 14.0346C167.741 13.1927 167.971 12.4677 168.431 11.8597C168.891 11.2516 169.534 10.7839 170.36 10.4565C171.194 10.1291 172.169 9.96538 173.283 9.96538C174.936 9.96538 176.234 10.3162 177.177 11.0178C178.128 11.7116 178.682 12.6587 178.838 13.8592Z" fill="white"/>
<path fill-rule="evenodd" clip-rule="evenodd" d="M2.57764 0C1.16178 0.319356 0 1.56523 0 3.21356V27.7072C0 29.3556 1.16178 30.6014 2.57764 30.9208V27.7129H8.0001V28.7846L26.1452 18.3085C28.3377 17.0427 28.3377 13.8781 26.1452 12.6123L8.0001 2.13621V3.06535H2.57764V0ZM8.0001 5.53008H2.57764V10.4596H8.0001V5.53008ZM2.57764 20.3186H8.0001V25.2481H2.57764V20.3186ZM8.0001 12.9244H2.57764V17.8539H8.0001V12.9244Z" fill="white"/>
</svg>
